<?xml version="1.0" standalone="no"?>
<!DOCTYPE svg PUBLIC "-//W3C//DTD SVG 20010904//EN"
 "http://www.w3.org/TR/2001/REC-SVG-20010904/DTD/svg10.dtd">
<svg version="1.0" xmlns="http://www.w3.org/2000/svg"
 width="512.000000pt" height="512.000000pt" viewBox="0 0 512.000000 512.000000"
 preserveAspectRatio="xMidYMid meet">

<g transform="translate(0.000000,512.000000) scale(0.100000,-0.100000)"
fill="#000000" stroke="none">
<path d="M861 3612 c-14 -2 -64 -45 -120 -100 -181 -182 -302 -406 -357 -662
-23 -107 -26 -389 -5 -495 20 -101 73 -260 116 -346 133 -265 373 -495 636
-611 113 -50 126 -47 251 47 154 116 293 284 382 463 69 137 126 344 126 455
0 67 -20 88 -116 121 -175 59 -304 137 -430 258 -110 106 -172 189 -234 313
-62 125 -96 244 -112 388 -10 85 -17 116 -33 134 -22 26 -67 41 -104 35z"/>
<path d="M4193 3605 c-45 -19 -60 -49 -68 -135 -26 -285 -140 -525 -342 -721
-125 -122 -261 -204 -432 -263 -102 -34 -121 -55 -121 -125 0 -115 55 -311
127 -456 91 -182 263 -383 421 -490 91 -61 117 -63 226 -12 322 151 581 444
691 781 50 155 60 223 60 406 0 183 -10 251 -61 408 -60 185 -160 352 -303
505 -94 100 -144 126 -198 102z"/>
</g>
</svg>
